Coordinates
version=1
nRows=16
nColumns=36
inDegrees=yes

Units are S.I. units (second, meters, Newtons, ...)
If the header above contains a line with 'inDegrees', this indicates whether rotational values are in degrees (yes) or radians (no).

endheader
time	pelvis_tilt	pelvis_list	pelvis_rotation	pelvis_tx	pelvis_ty	pelvis_tz	hip_flexion_r	hip_adduction_r	hip_rotation_r	knee_angle_r	knee_angle_r_beta	ankle_angle_r	subtalar_angle_r	mtp_angle_r	hip_flexion_l	hip_adduction_l	hip_rotation_l	knee_angle_l	knee_angle_l_beta	ankle_angle_l	subtalar_angle_l	mtp_angle_l	lumbar_extension	lumbar_bending	lumbar_rotation	arm_flex_r	arm_add_r	arm_rot_r	elbow_flex_r	pro_sup_r	arm_flex_l	arm_add_l	arm_rot_l	elbow_flex_l	pro_sup_l
      0.00000000	      0.75606923	      0.76399122	     11.61884209	     -0.11725269	      1.33578120	      0.35557908	     -1.14036570	     -3.29529410	      1.20218636	      3.69733493	      0.06453067	      3.23083490	     -9.35822261	     -6.84762921	     -1.40532575	     -1.65893981	      1.68073975	      3.26859153	      0.05704768	      8.52394167	     -1.85418595	     -6.84762921	     -5.68029671	     -0.15927994	      2.68052580	     -0.29803634	     -9.54155174	      2.67786709	     26.43433583	     91.39034832	      6.06098935	    -10.27085504	      7.87893359	     25.94995041	     93.73376014
      0.01666670	      0.26397056	      0.76173282	     10.85573665	     -0.11450641	      1.33789708	      0.35491781	     -0.70053127	     -3.40120888	      2.42581870	      3.49076662	      0.06092537	      4.64821591	     -9.13005432	     -6.94233339	     -1.36987712	     -1.54727284	      1.83894338	      2.84533860	      0.04966053	      7.91142683	     -1.81234774	     -6.94233339	     -4.26796686	     -0.10346440	      3.13031965	      0.24822027	     -9.43175031	      4.78647359	     24.70048938	     94.76022788	      4.73109839	     -9.62804249	      5.72203139	     26.00202619	     95.46820010
      0.03333330	      0.02822003	      0.69792824	     10.34830806	     -0.11397356	      1.33912756	      0.35505705	     -0.05048993	     -3.42291666	      3.30902817	      3.89927583	      0.06805520	      4.83828095	     -9.38049451	     -7.03837133	     -1.44393090	     -1.55913255	      2.25462037	      2.21925283	      0.03873327	      7.20941891	     -2.29315576	     -7.03837133	     -3.78332931	      0.10400125	      3.29279035	      0.35280030	     -9.43069246	      6.24726142	     24.08530592	     93.57236291	      4.59977889	     -9.37996687	      6.10848959	     25.36883742	     94.25983128
      0.05000000	      0.01429677	      0.72485677	     10.53093185	     -0.11460916	      1.33576228	      0.35481692	      0.14789285	     -3.58992377	      2.75157524	      4.25447539	      0.07425460	      5.55694855	     -8.37006164	     -7.06113610	     -1.36495670	     -1.55165068	      2.86050851	      2.24147054	      0.03912104	      7.14783371	     -2.60324827	     -7.06113610	     -3.67827306	      0.23046685	      2.98748915	      0.47655971	     -9.44485242	      7.22407529	     24.20416781	     93.01184378	      4.27129609	     -9.33873470	      6.22053585	     25.76174446	     93.88348752
      0.06666670	     -0.08218359	      0.79008581	     10.51022428	     -0.11504592	      1.33610681	      0.35502026	      0.55145502	     -3.69766903	      2.78978940	      4.80927680	      0.08393771	      5.99714386	     -8.12759923	     -7.15759967	     -1.11759634	     -1.50997730	      2.89855163	      2.48070552	      0.04329648	      7.35519286	     -2.24382010	     -7.15759967	     -3.62494802	      0.25821747	      2.99024413	      0.68753805	     -9.54458268	      8.99435815	     24.64973894	     90.53321910	      4.07792739	     -9.41460831	      6.96137581	     25.95001577	     91.95742641
      0.08333330	     -0.24192096	      0.86437914	     10.41088017	     -0.11524964	      1.33869403	      0.35525233	      1.03683200	     -3.86195300	      2.54154426	      5.40615771	      0.09435525	      6.40304362	     -7.75165202	     -7.24902990	     -0.81969965	     -1.45895547	      2.95898949	      2.79777836	      0.04883044	      7.46435667	     -2.01095723	     -7.24902990	     -3.44360114	      0.21935045	      3.03860810	      0.86689412	     -9.66562293	     10.73404162	     24.97466992	     87.43148562	      3.84689497	     -9.48759420	      7.71424552	     26.21101408	     89.76337513
      0.10000000	     -0.33569482	      0.99269453	     10.21395482	     -0.11614600	      1.33605583	      0.35569905	      1.44754542	     -4.07083461	      2.33902238	      5.97753700	      0.10432770	      6.72190654	     -7.37874692	     -7.27257581	     -0.55967247	     -1.33999485	      2.84404240	      3.11793463	      0.05441823	      7.45800810	     -1.91700936	     -7.27257581	     -3.46648967	      0.11409277	      3.05459132	      0.82560443	     -9.69453929	     11.11293765	     25.88884967	     86.31981118	      3.47178474	     -9.65710997	      7.87816324	     26.92320376	     88.94418177
      0.11666670	     -0.34447463	      1.08641878	     10.26534618	     -0.11663627	      1.33592374	      0.35591829	      1.66394995	     -4.20925764	      2.10188878	      6.42842467	      0.11219718	      6.90589103	     -7.28151882	     -7.29357359	     -0.40616034	     -1.29375803	      2.57668009	      3.40469406	      0.05942312	      7.37148281	     -1.57955209	     -7.29357359	     -3.46854007	      0.05397424	      3.05322699	      0.78830957	     -9.68837681	     11.64121491	     26.38080969	     85.07436421	      3.33900647	     -9.71674100	      8.13300224	     27.32552153	     88.09152130
      0.13333330	     -0.32758906	      1.22065551	     10.18028489	     -0.11763734	      1.33346523	      0.35625856	      1.80642768	     -4.36030338	      2.03387860	      6.76091820	      0.11800028	      7.11595218	     -7.19126150	     -7.32386888	     -0.27745276	     -1.18744031	      2.19268267	      3.69692118	      0.06452345	      7.46253204	     -1.21835650	     -7.32386888	     -3.54088901	     -0.09370312	      3.08510063	      0.69317088	     -9.75928012	     12.26286582	     27.13974139	     83.01357125	      3.11493766	     -9.86229406	      8.43923770	     28.04286686	     86.34780426
      0.15000000	     -0.47214730	      1.29361658	     10.04210450	     -0.11800791	      1.32979585	      0.35664424	      2.21924499	     -4.46302438	      1.99249959	      7.28865128	      0.12721096	      7.49709685	     -7.11765970	     -7.35149025	      0.05831019	     -1.10899620	      1.89777405	      4.11631710	      0.07184329	      7.61437870	     -1.10837692	     -7.35149025	     -3.16595446	     -0.20649392	      3.20556825	      1.01640396	     -9.95123971	     14.49151929	     26.65899796	     82.05412901	      3.45722073	    -10.06875370	     10.10286045	     27.23929986	     87.41455137
      0.16666670	     -0.27706628	      1.42073326	      9.93692920	     -0.11875484	      1.33034666	      0.35692547	      2.17283707	     -4.54814737	      1.95681357	      7.68613729	      0.13414840	      7.83678461	     -7.12998070	     -7.37937210	      0.03182936	     -1.04118616	      1.61205593	      4.49815852	      0.07850768	      7.88242928	     -0.80305684	     -7.37937210	     -3.54917503	     -0.33517149	      3.21124366	      0.89981632	    -10.04369856	     14.76551400	     27.62036692	     79.57826890	      3.21421113	    -10.23670246	     10.11892274	     28.20084048	     85.11431031
      0.18333330	     -0.18158057	      1.51465359	      9.82497516	     -0.11874928	      1.32978712	      0.35706202	      2.25072948	     -4.62568304	      1.91452627	      8.12554331	      0.14181748	      8.16411683	     -7.09732699	     -7.38731219	      0.03306727	     -0.97311839	      1.37947468	      4.82775367	      0.08426020	      7.89709242	     -0.74706878	     -7.38731219	     -3.64157660	     -0.41674802	      3.24734423	      1.02351364	    -10.05553916	     15.18035071	     27.70071873	     79.00751199	      3.30359823	    -10.33058273	     10.49806822	     28.22434038	     84.95060357
      0.20000000	     -0.14796306	      1.62104294	      9.78239497	     -0.11949871	      1.32748853	      0.35724418	      2.34671958	     -4.71898249	      1.79033608	      8.44415958	      0.14737839	      8.43601781	     -7.06938054	     -7.42232272	      0.20751090	     -0.88964051	      1.18651144	      5.28296476	      0.09220513	      8.04030184	     -0.52173299	     -7.42232272	     -3.58712476	     -0.56388890	      3.39685445	      1.10348656	    -10.33236523	     16.96946367	     27.67897410	     77.55751390	      3.66819503	    -10.57456242	     12.28517939	     27.81679567	     85.51488650
      0.21666670	      0.07268271	      1.67770106	      9.71296560	     -0.11930890	      1.32728116	      0.35732549	      2.23210265	     -4.72576234	      1.78257235	      8.75219121	      0.15275455	      8.75271470	     -7.10095326	     -7.43261446	      0.08073370	     -0.89254588	      1.14180164	      5.57456739	      0.09729456	      8.26780498	     -0.54794347	     -7.43261446	     -4.02614710	     -0.61253703	      3.30506348	      1.00426105	    -10.42084024	     16.90549777	     28.51096092	     76.46088508	      3.45304412	    -10.75653195	     12.18239355	     28.61599076	     84.27578924
      0.23333330	      0.08853045	      1.72212777	      9.68173059	     -0.11998997	      1.33106104	      0.35746516	      2.32807666	     -4.74999549	      1.90345634	      9.03604493	      0.15770874	      8.87586832	     -7.47784352	     -7.44974022	      0.19494897	     -0.87440512	      1.05537203	      5.89948997	      0.10296552	      8.39340669	     -0.49484866	     -7.44974022	     -3.96991998	     -0.70000324	      3.23213226	      1.30474285	    -10.33786344	     17.54627544	     27.98440800	     74.82105370	      3.69059470	    -10.78626072	     12.78696570	     27.97354796	     83.02862483
      0.25000000	      0.33907437	      1.82251477	      9.70015485	     -0.12045103	      1.33134059	      0.35758172	      2.07395009	     -4.80097510	      1.90523655	      9.15998064	      0.15987182	      9.05259002	     -7.54530750	     -7.45255135	     -0.00648705	     -0.82575106	      1.14307349	      6.01167323	      0.10492349	      8.28191977	     -0.53321381	     -7.45255135	     -4.41482107	     -0.79581230	      3.16704259	      1.25309082	    -10.42636629	     17.64995654	     28.57413861	     74.30014956	      3.63244978	    -10.91690522	     12.96696690	     28.55515253	     82.58739949
